<?xml version="1.0" encoding="UTF-8" standalone="no"?>
<!-- Created with Inkscape (http://www.inkscape.org/) -->

<svg
   xmlns:dc="http://purl.org/dc/elements/1.1/"
   xmlns:cc="http://creativecommons.org/ns#"
   xmlns:rdf="http://www.w3.org/1999/02/22-rdf-syntax-ns#"
   xmlns:svg="http://www.w3.org/2000/svg"
   xmlns="http://www.w3.org/2000/svg"
   xmlns:sodipodi="http://sodipodi.sourceforge.net/DTD/sodipodi-0.dtd"
   xmlns:inkscape="http://www.inkscape.org/namespaces/inkscape"
   width="43.899998mm"
   height="50.799999mm"
   viewBox="0 0 43.899998 50.799999"
   version="1.1"
   id="svg8"
   inkscape:version="0.92.3 (2405546, 2018-03-11)"
   sodipodi:docname="covrpage.svg">
  <defs
     id="defs2">
    <inkscape:path-effect
       effect="envelope"
       id="path-effect4425"
       is_visible="true"
       yy="true"
       xx="true"
       bendpath1="m 439.10293,231.96056 c 29.44498,-10.396 48.14278,-6.87302 64.25394,0"
       bendpath2="m 503.35687,231.96056 v 18.68043"
       bendpath3="m 439.10293,250.64099 h 64.25394"
       bendpath4="m 439.10293,231.96056 v 18.68043"
       bendpath1-nodetypes="cc" />
    <clipPath
       clipPathUnits="userSpaceOnUse"
       id="clipPath3411">
      <path
         transform="matrix(2.6970068,0,0,2.7027874,1875.2222,1979.2481)"
         inkscape:transform-center-x="-1.1597594e-005"
         d="m -166.30952,89.113089 -96.23708,-55.562498 0,-111.125 96.23707,-55.562501 96.237077,55.562496 3e-6,111.125 z"
         inkscape:randomized="0"
         inkscape:rounded="0"
         inkscape:flatsided="true"
         sodipodi:arg2="2.0943951"
         sodipodi:arg1="1.5707963"
         sodipodi:r2="96.237076"
         sodipodi:r1="111.125"
         sodipodi:cy="-22.011911"
         sodipodi:cx="-166.30952"
         sodipodi:sides="6"
         id="path3413"
         style="opacity:1;vector-effect:none;fill:#216778;fill-opacity:1;fill-rule:nonzero;stroke:none;stroke-width:0.26458332;stroke-linecap:round;stroke-linejoin:round;stroke-miterlimit:4;stroke-dasharray:none;stroke-dashoffset:0;stroke-opacity:1;paint-order:normal"
         sodipodi:type="star" />
    </clipPath>
  </defs>
  <sodipodi:namedview
     id="base"
     pagecolor="#ffffff"
     bordercolor="#666666"
     borderopacity="1.0"
     inkscape:pageopacity="0.0"
     inkscape:pageshadow="2"
     inkscape:zoom="0.35"
     inkscape:cx="1657.1429"
     inkscape:cy="1017.1429"
     inkscape:document-units="px"
     inkscape:current-layer="layer2"
     showgrid="false"
     inkscape:pagecheckerboard="true"
     inkscape:window-width="2560"
     inkscape:window-height="1377"
     inkscape:window-x="-8"
     inkscape:window-y="32"
     inkscape:window-maximized="1" />
  <metadata
     id="metadata5">
    <rdf:RDF>
      <cc:Work
         rdf:about="">
        <dc:format>image/svg+xml</dc:format>
        <dc:type
           rdf:resource="http://purl.org/dc/dcmitype/StillImage" />
        <dc:title />
      </cc:Work>
    </rdf:RDF>
  </metadata>
  <g
     inkscape:groupmode="layer"
     id="layer2"
     inkscape:label="Final"
     transform="translate(-332.99421,-278.82219)">
    <path
       sodipodi:type="star"
       style="opacity:1;vector-effect:none;fill:#216778;fill-opacity:1;fill-rule:nonzero;stroke:none;stroke-width:0.26458332;stroke-linecap:round;stroke-linejoin:round;stroke-miterlimit:4;stroke-dasharray:none;stroke-dashoffset:0;stroke-opacity:1;paint-order:normal"
       id="path4328"
       sodipodi:sides="6"
       sodipodi:cx="-166.30952"
       sodipodi:cy="-22.011911"
       sodipodi:r1="111.125"
       sodipodi:r2="96.237076"
       sodipodi:arg1="1.5707963"
       sodipodi:arg2="2.0943951"
       inkscape:flatsided="true"
       inkscape:rounded="0"
       inkscape:randomized="0"
       d="m -166.30952,89.113089 -96.23708,-55.562498 0,-111.125 96.23707,-55.562501 96.237077,55.562496 3e-6,111.125 z"
       inkscape:transform-center-x="1.0844876e-006"
       transform="matrix(0.22808257,0,0,0.22857143,392.87651,309.25348)"
       inkscape:transform-center-y="2.3722401e-006" />
    <text
       id="text4349"
       y="309.01505"
       x="373.79236"
       style="font-style:normal;font-variant:normal;font-weight:normal;font-stretch:normal;font-size:4.78763676px;line-height:1.25;font-family:'Arial Rounded MT Bold';-inkscape-font-specification:'Arial Rounded MT Bold, ';font-variant-ligatures:normal;font-variant-position:normal;font-variant-caps:normal;font-variant-numeric:normal;font-variant-alternates:normal;font-feature-settings:normal;text-indent:0;text-align:end;text-decoration:none;text-decoration-line:none;text-decoration-style:solid;text-decoration-color:#000000;letter-spacing:normal;word-spacing:normal;text-transform:none;writing-mode:lr-tb;direction:ltr;text-orientation:mixed;dominant-baseline:auto;baseline-shift:baseline;text-anchor:end;white-space:normal;shape-padding:0;opacity:1;vector-effect:none;fill:#ffffff;fill-opacity:1;fill-rule:nonzero;stroke:none;stroke-width:0.35463974;stroke-linecap:round;stroke-linejoin:round;stroke-miterlimit:4;stroke-dasharray:none;stroke-dashoffset:0;stroke-opacity:1;paint-order:normal"
       xml:space="preserve"><tspan
         style="font-style:normal;font-variant:normal;font-weight:normal;font-stretch:normal;font-family:'Arial Rounded MT Bold';-inkscape-font-specification:'Arial Rounded MT Bold, ';text-align:end;text-anchor:end;fill:#ffffff;stroke-width:0.35463974"
         y="309.01505"
         x="373.79236"
         id="tspan4347"
         sodipodi:role="line">AGE</tspan></text>
    <path
       style="fill:#ffffff;stroke-width:12.84092999"
       clip-path="url(#clipPath3411)"
       d="m 1377.7578,1763.7012 a 156.82619,156.82619 0 0 0 -156.8262,156.8261 156.82619,156.82619 0 0 0 36.2442,100.1954 l -9.6504,9.6503 a 44.301206,44.301206 0 0 0 -50.207,7.4493 l -148.5704,148.4394 a 43.145521,43.145521 0 0 0 0,60.9961 l 1.4141,1.4121 a 43.145521,43.145521 0 0 0 60.8652,0 l 148.5704,-148.4414 a 42.760293,42.760293 0 0 0 12.5839,-30.5605 42.760293,42.760293 0 0 0 -6.0351,-21.7012 l 9.0527,-9.0527 a 156.82619,156.82619 0 0 0 102.5586,38.4394 156.82619,156.82619 0 0 0 156.8262,-156.8262 156.82619,156.82619 0 0 0 -156.8262,-156.8261 z m 0,35.8613 a 120.96577,120.96577 0 0 1 120.9668,120.9648 120.96577,120.96577 0 0 1 -120.9668,120.9668 120.96577,120.96577 0 0 1 -120.9648,-120.9668 120.96577,120.96577 0 0 1 120.9648,-120.9648 z m -149.7226,251.2734 a 17.463663,17.463663 0 0 1 12.041,5.0918 l 1.4121,1.4121 a 17.463663,17.463663 0 0 1 0,24.6543 h -0.1269 L 1092.92,2230.4355 a 17.848892,17.848892 0 0 1 -24.6543,0 l -1.2852,-1.7988 a 17.463663,17.463663 0 0 1 0,-24.6543 l 148.4414,-148.0547 a 17.463663,17.463663 0 0 1 12.6114,-5.0918 z"
       id="path4330"
       transform="matrix(0.08456878,0,0,0.08456878,234.29127,141.87088)"
       inkscape:connector-curvature="0" />
    <g
       aria-label="covr"
       transform="matrix(0.26385644,0,0,0.38719294,226.85909,212.02707)"
       style="font-style:normal;font-variant:normal;font-weight:normal;font-stretch:normal;font-size:34.46623611px;line-height:1.25;font-family:'Arial Rounded MT Bold';-inkscape-font-specification:'Arial Rounded MT Bold, ';font-variant-ligatures:normal;font-variant-position:normal;font-variant-caps:normal;font-variant-numeric:normal;font-variant-alternates:normal;font-feature-settings:normal;text-indent:0;text-align:center;text-decoration:none;text-decoration-line:none;text-decoration-style:solid;text-decoration-color:#000000;letter-spacing:normal;word-spacing:normal;text-transform:none;writing-mode:lr-tb;direction:ltr;text-orientation:mixed;dominant-baseline:auto;baseline-shift:baseline;text-anchor:middle;white-space:normal;shape-padding:0;opacity:1;vector-effect:none;fill:#ffffff;fill-opacity:1;fill-rule:nonzero;stroke:none;stroke-width:2.55305433;stroke-linecap:round;stroke-linejoin:round;stroke-miterlimit:4;stroke-dasharray:none;stroke-dashoffset:0;stroke-opacity:1;paint-order:normal"
       id="text4392"
       inkscape:path-effect="#path-effect4425">
      <path
         d="m 451.58565,242.95254 c 1.00523,0.0751 1.99156,0.15 2.98878,0.22912 -0.311,2.15318 -1.15816,3.8943 -2.60018,5.21707 -1.43701,1.31661 -3.17874,1.97785 -5.1393,1.98374 -2.44415,0.007 -4.24923,-0.86493 -5.72519,-2.4262 -1.44544,-1.55221 -2.47634,-3.8583 -2.46735,-6.81748 0.006,-1.94375 0.45948,-3.61415 1.16121,-5.1229 0.68463,-1.47197 1.64967,-2.74856 2.81668,-3.76902 1.1974,-1.0532 2.50026,-1.9063 4.01752,-2.3254 1.94076,-0.53607 3.60203,-0.29197 5.00161,0.88609 1.37723,1.14423 2.24502,2.99064 2.61815,5.19446 -0.97745,0.30528 -1.95572,0.60182 -2.94087,0.88814 -0.28698,-1.37755 -0.80693,-2.44087 -1.5587,-3.09453 -0.74364,-0.65824 -1.61537,-0.87956 -2.62662,-0.70026 -1.51465,0.26856 -2.71659,1.14075 -3.67482,2.42431 -0.94688,1.25641 -1.55699,3.12067 -1.56425,5.47706 -0.007,2.38913 0.5846,4.12499 1.52545,5.16799 0.95344,1.05699 2.14212,1.59139 3.63033,1.551 1.19665,-0.0325 2.20875,-0.44277 3.02296,-1.23223 0.81541,-0.79064 1.31484,-1.96242 1.51459,-3.53096 z"
         style="font-style:normal;font-variant:normal;font-weight:normal;font-stretch:normal;font-family:Arial;-inkscape-font-specification:Arial;fill:#ffffff;stroke-width:2.55305433"
         id="path4416"
         inkscape:original-d="m 451.69118,243.69053 2.97877,0.38707 q -0.48805,3.07974 -2.50755,4.82998 -2.00268,1.73341 -4.93096,1.73341 -3.66877,0 -5.90706,-2.38975 -2.22145,-2.40657 -2.22145,-6.88315 0,-2.89462 0.95926,-5.06559 0.95927,-2.17097 2.91146,-3.24804 1.96901,-1.0939 4.27462,-1.0939 2.91145,0 4.76266,1.48097 1.85122,1.46414 2.37292,4.17365 l -2.94511,0.45439 q -0.42073,-1.80073 -1.4978,-2.70951 -1.06024,-0.90877 -2.57487,-0.90877 -2.28877,0 -3.71926,1.64926 -1.43048,1.63243 -1.43048,5.1834 0,3.60145 1.38,5.23388 1.37999,1.63244 3.60145,1.63244 1.7839,0 2.97877,-1.0939 1.19487,-1.0939 1.51463,-3.36584 z"
         inkscape:connector-curvature="0" />
      <path
         d="m 456.02064,240.1207 c -0.0109,-3.49524 0.90603,-7.13429 2.53334,-9.94856 1.40876,-2.42373 3.12696,-4.17203 5.4159,-4.53005 2.56379,-0.40101 4.61145,1.1398 6.22282,3.9705 1.56487,2.7298 2.30057,6.17299 2.29212,9.4771 -0.007,2.70062 -0.34607,4.66977 -1.03016,6.17523 -0.67026,1.4864 -1.6715,2.73211 -3.00554,3.65304 -1.33538,0.92951 -2.78227,1.41565 -4.34957,1.41826 -2.52116,0.004 -4.38655,-1.05831 -5.8416,-2.84269 -1.42295,-1.75874 -2.2272,-4.14341 -2.23731,-7.37283 z m 3.09284,-0.22485 c 0.008,2.53283 0.51484,4.32321 1.47741,5.54209 0.96805,1.21325 2.17171,1.85515 3.66704,1.82982 1.4843,-0.0251 2.72403,-0.71877 3.71464,-2.03194 0.9868,-1.30812 1.47264,-3.2147 1.47456,-5.94299 0.002,-2.59203 -0.487,-4.9592 -1.49753,-6.64156 -1.01479,-1.7259 -2.25173,-2.61668 -3.75478,-2.4469 -1.52145,0.17185 -2.70459,1.31406 -3.66031,3.08167 -0.94015,1.73883 -1.42884,4.07193 -1.42103,6.60981 z"
         style="font-style:normal;font-variant:normal;font-weight:normal;font-stretch:normal;font-family:Arial;-inkscape-font-specification:Arial;fill:#ffffff;stroke-width:2.55305433"
         id="path4418"
         inkscape:original-d="m 456.13409,241.30078 q 0,-4.96462 2.75999,-7.35437 2.30561,-1.98585 5.62096,-1.98585 3.6856,0 6.02486,2.42341 2.33926,2.40658 2.33926,6.66437 0,3.44999 -1.04341,5.43584 -1.02658,1.96901 -3.01243,3.06291 -1.96902,1.0939 -4.30828,1.0939 -3.75291,0 -6.07534,-2.40658 -2.30561,-2.40657 -2.30561,-6.93363 z m 3.11341,0 q 0,3.43316 1.4978,5.14974 1.4978,1.69975 3.76974,1.69975 2.25512,0 3.75292,-1.71658 1.4978,-1.71658 1.4978,-5.23389 0,-3.31535 -1.51463,-5.01511 -1.4978,-1.71658 -3.73609,-1.71658 -2.27194,0 -3.76974,1.69976 -1.4978,1.69975 -1.4978,5.13291 z"
         inkscape:connector-curvature="0" />
      <path
         d="m 480.91746,249.81707 c -1.40247,-3.93716 -3.74918,-10.91977 -4.8902,-15.58847 -0.59328,-2.42121 -1.13392,-5.05156 -1.71513,-8.42281 0.63474,0.0215 1.26889,0.0545 1.90351,0.0991 0.45435,0.0318 0.90802,0.07 1.36137,0.1143 0.968,7.2435 2.2035,11.61061 3.43477,15.62393 0.40794,1.32696 0.7558,2.56845 1.1188,3.98959 0.25802,-1.06369 0.61447,-2.21888 1.10301,-3.65649 1.3216,-3.89137 2.36141,-8.12397 4.50484,-14.06142 1.03493,0.26845 2.06032,0.55119 3.08701,0.84337 -1.21478,2.92995 -6.90171,20.1753 -7.09896,21.07408 0.0435,2.6e-4 -2.85256,-0.0155 -2.80902,-0.0152 z"
         style="font-style:normal;font-variant:normal;font-weight:normal;font-stretch:normal;font-family:Arial;-inkscape-font-specification:Arial;fill:#ffffff;stroke-width:2.55305433"
         id="path4420"
         inkscape:original-d="m 481.41158,250.23709 -6.79901,-17.87263 h 3.19756 l 3.83706,10.70338 q 0.62268,1.73341 1.14438,3.60146 0.4039,-1.41366 1.12756,-3.3995 l 3.9717,-10.90534 h 3.1134 l -6.76534,17.87263 z"
         inkscape:connector-curvature="0" />
      <path
         d="m 493.09456,249.90381 c -0.25448,-1.88351 -0.36243,-16.29629 0.33214,-20.39108 0.88686,0.26031 1.78659,0.52565 2.6689,0.78078 -0.22144,1.2102 -0.33284,2.38258 -0.39097,3.48359 0.78022,-1.45037 1.54738,-2.34373 2.21616,-2.70084 0.67258,-0.35032 1.35724,-0.40093 2.04394,-0.20859 0.99344,0.27825 1.89521,0.91238 2.84192,1.73878 -0.45943,0.86166 -0.83702,1.81292 -1.1749,2.74617 -0.75478,-0.52311 -1.48851,-0.86013 -2.22832,-0.96406 -0.66284,-0.0931 -1.26106,0.0421 -1.80168,0.43325 -0.53888,0.37716 -0.92287,0.96207 -1.14746,1.73379 -0.33556,1.17213 -0.48412,2.44263 -0.48103,3.76818 0.006,2.37986 -0.22094,7.03849 0.14661,9.60586 -0.56053,-0.005 -2.46479,-0.0211 -3.02531,-0.0258 z"
         style="font-style:normal;font-variant:normal;font-weight:normal;font-stretch:normal;font-family:Arial;-inkscape-font-specification:Arial;fill:#ffffff;stroke-width:2.55305433"
         id="path4422"
         inkscape:original-d="m 493.64642,250.23709 v -17.87263 h 2.72633 v 2.70951 q 1.04341,-1.9017 1.91853,-2.50756 0.89195,-0.60585 1.95219,-0.60585 1.53146,0 3.1134,0.9761 l -1.04341,2.81048 q -1.11073,-0.65634 -2.22145,-0.65634 -0.99293,0 -1.7839,0.60585 -0.79097,0.58902 -1.12756,1.64926 -0.50487,1.61561 -0.50487,3.53414 v 9.35704 z"
         inkscape:connector-curvature="0" />
    </g>
    <text
       xml:space="preserve"
       style="font-style:normal;font-variant:normal;font-weight:normal;font-stretch:normal;font-size:4.78763676px;line-height:1.25;font-family:'Arial Rounded MT Bold';-inkscape-font-specification:'Arial Rounded MT Bold, ';font-variant-ligatures:normal;font-variant-position:normal;font-variant-caps:normal;font-variant-numeric:normal;font-variant-alternates:normal;font-feature-settings:normal;text-indent:0;text-align:start;text-decoration:none;text-decoration-line:none;text-decoration-style:solid;text-decoration-color:#000000;letter-spacing:normal;word-spacing:normal;text-transform:none;writing-mode:lr-tb;direction:ltr;text-orientation:mixed;dominant-baseline:auto;baseline-shift:baseline;text-anchor:start;white-space:normal;shape-padding:0;opacity:1;vector-effect:none;fill:#216778;fill-opacity:1;fill-rule:nonzero;stroke:none;stroke-width:0.35463974;stroke-linecap:round;stroke-linejoin:round;stroke-miterlimit:4;stroke-dasharray:none;stroke-dashoffset:0;stroke-opacity:1;paint-order:normal"
       x="360.6918"
       y="309.01505"
       id="text3393"><tspan
         sodipodi:role="line"
         id="tspan3391"
         x="360.6918"
         y="309.01505"
         style="font-style:normal;font-variant:normal;font-weight:normal;font-stretch:normal;font-family:'Arial Rounded MT Bold';-inkscape-font-specification:'Arial Rounded MT Bold, ';text-align:start;text-anchor:start;fill:#216778;fill-opacity:1;stroke-width:0.35463974">P</tspan></text>
  </g>
</svg>
