<?xml version="1.0" encoding="UTF-8" standalone="no"?>
<!-- Created with Inkscape (http://www.inkscape.org/) -->

<svg
   xmlns:dc="http://purl.org/dc/elements/1.1/"
   xmlns:cc="http://creativecommons.org/ns#"
   xmlns:rdf="http://www.w3.org/1999/02/22-rdf-syntax-ns#"
   xmlns:svg="http://www.w3.org/2000/svg"
   xmlns="http://www.w3.org/2000/svg"
   xmlns:sodipodi="http://sodipodi.sourceforge.net/DTD/sodipodi-0.dtd"
   xmlns:inkscape="http://www.inkscape.org/namespaces/inkscape"
   width="841mm"
   height="594mm"
   viewBox="0 0 841 594"
   version="1.1"
   id="svg8"
   inkscape:version="0.92.3 (2405546, 2018-03-11)"
   sodipodi:docname="covrpage.svg">
  <defs
     id="defs2">
    <inkscape:path-effect
       effect="envelope"
       id="path-effect4425"
       is_visible="true"
       yy="true"
       xx="true"
       bendpath1="m 439.10293,231.96056 c 29.44498,-10.396 48.14278,-6.87302 64.25394,0"
       bendpath2="m 503.35687,231.96056 v 18.68043"
       bendpath3="m 439.10293,250.64099 h 64.25394"
       bendpath4="m 439.10293,231.96056 v 18.68043"
       bendpath1-nodetypes="cc" />
    <clipPath
       clipPathUnits="userSpaceOnUse"
       id="clipPath4439">
      <path
         transform="matrix(0.71358305,0,0,0.7151125,519.40497,304.18421)"
         inkscape:transform-center-x="-1.1597594e-005"
         d="m -166.30952,89.113089 -96.23708,-55.562498 0,-111.125 96.23707,-55.562501 96.237077,55.562496 3e-6,111.125 z"
         inkscape:randomized="0"
         inkscape:rounded="0"
         inkscape:flatsided="true"
         sodipodi:arg2="2.0943951"
         sodipodi:arg1="1.5707963"
         sodipodi:r2="96.237076"
         sodipodi:r1="111.125"
         sodipodi:cy="-22.011911"
         sodipodi:cx="-166.30952"
         sodipodi:sides="6"
         id="path4441"
         style="opacity:1;vector-effect:none;fill:#216778;fill-opacity:1;fill-rule:nonzero;stroke:none;stroke-width:0.26458332;stroke-linecap:round;stroke-linejoin:round;stroke-miterlimit:4;stroke-dasharray:none;stroke-dashoffset:0;stroke-opacity:1;paint-order:normal"
         sodipodi:type="star" />
    </clipPath>
  </defs>
  <sodipodi:namedview
     id="base"
     pagecolor="#ffffff"
     bordercolor="#666666"
     borderopacity="1.0"
     inkscape:pageopacity="0.0"
     inkscape:pageshadow="2"
     inkscape:zoom="0.35"
     inkscape:cx="1657.1429"
     inkscape:cy="1017.1429"
     inkscape:document-units="px"
     inkscape:current-layer="layer1"
     showgrid="false"
     inkscape:pagecheckerboard="true"
     inkscape:window-width="2560"
     inkscape:window-height="1377"
     inkscape:window-x="-8"
     inkscape:window-y="32"
     inkscape:window-maximized="1" />
  <metadata
     id="metadata5">
    <rdf:RDF>
      <cc:Work
         rdf:about="">
        <dc:format>image/svg+xml</dc:format>
        <dc:type
           rdf:resource="http://purl.org/dc/dcmitype/StillImage" />
        <dc:title></dc:title>
      </cc:Work>
    </rdf:RDF>
  </metadata>
  <g
     inkscape:label="Layer 1"
     inkscape:groupmode="layer"
     id="layer1"
     transform="translate(0,297)">
    <path
       sodipodi:type="star"
       style="opacity:1;vector-effect:none;fill:#216778;fill-opacity:1;fill-rule:nonzero;stroke:none;stroke-width:0.26458332;stroke-linecap:round;stroke-linejoin:round;stroke-miterlimit:4;stroke-dasharray:none;stroke-dashoffset:0;stroke-opacity:1;paint-order:normal"
       id="path4328"
       sodipodi:sides="6"
       sodipodi:cx="-166.30952"
       sodipodi:cy="-22.011911"
       sodipodi:r1="111.125"
       sodipodi:r2="96.237076"
       sodipodi:arg1="1.5707963"
       sodipodi:arg2="2.0943951"
       inkscape:flatsided="true"
       inkscape:rounded="0"
       inkscape:randomized="0"
       d="m -166.30952,89.113089 -96.23708,-55.562498 0,-111.125 96.23707,-55.562501 96.237077,55.562496 3e-6,111.125 z"
       inkscape:transform-center-x="-1.1597594e-005"
       transform="matrix(0.71358305,0,0,0.7151125,496.15253,226.67606)" />
    <text
       xml:space="preserve"
       style="font-style:normal;font-variant:normal;font-weight:900;font-stretch:normal;font-size:28.48960686px;line-height:1.25;font-family:Arial;-inkscape-font-specification:'Arial Heavy';font-variant-ligatures:normal;font-variant-position:normal;font-variant-caps:normal;font-variant-numeric:normal;font-variant-alternates:normal;font-feature-settings:normal;text-indent:0;text-align:center;text-decoration:none;text-decoration-line:none;text-decoration-style:solid;text-decoration-color:#000000;letter-spacing:normal;word-spacing:normal;text-transform:none;writing-mode:lr-tb;direction:ltr;text-orientation:mixed;dominant-baseline:auto;baseline-shift:baseline;text-anchor:middle;white-space:normal;shape-padding:0;opacity:1;vector-effect:none;fill:#000000;fill-opacity:1;fill-rule:nonzero;stroke:none;stroke-width:0.13189633;stroke-linecap:round;stroke-linejoin:round;stroke-miterlimit:4;stroke-dasharray:none;stroke-dashoffset:0;stroke-opacity:1;paint-order:normal"
       x="417.57852"
       y="-135.22217"
       id="text3335"><tspan
         sodipodi:role="line"
         id="tspan3333"
         x="417.57852"
         y="-135.22217"
         style="fill:#000000;stroke:none;stroke-width:0.13189633">CovrPage concepts</tspan></text>
    <text
       id="text3339"
       y="-57.214905"
       x="177.90404"
       style="font-style:normal;font-variant:normal;font-weight:900;font-stretch:normal;font-size:28.48960686px;line-height:1.25;font-family:Arial;-inkscape-font-specification:'Arial Heavy';font-variant-ligatures:normal;font-variant-position:normal;font-variant-caps:normal;font-variant-numeric:normal;font-variant-alternates:normal;font-feature-settings:normal;text-indent:0;text-align:center;text-decoration:none;text-decoration-line:none;text-decoration-style:solid;text-decoration-color:#000000;letter-spacing:normal;word-spacing:normal;text-transform:none;writing-mode:lr-tb;direction:ltr;text-orientation:mixed;dominant-baseline:auto;baseline-shift:baseline;text-anchor:middle;white-space:normal;shape-padding:0;opacity:1;vector-effect:none;fill:#000000;fill-opacity:1;fill-rule:nonzero;stroke:none;stroke-width:0.13189633;stroke-linecap:round;stroke-linejoin:round;stroke-miterlimit:4;stroke-dasharray:none;stroke-dashoffset:0;stroke-opacity:1;paint-order:normal"
       xml:space="preserve"><tspan
         style="font-style:normal;font-variant:normal;font-weight:normal;font-stretch:normal;font-family:Arial;-inkscape-font-specification:Arial;fill:#000000;stroke:none;stroke-width:0.13189633"
         y="-57.214905"
         x="177.90404"
         id="tspan3337"
         sodipodi:role="line">A literal cover page</tspan></text>
    <text
       xml:space="preserve"
       style="font-style:normal;font-variant:normal;font-weight:900;font-stretch:normal;font-size:28.48960686px;line-height:1.25;font-family:Arial;-inkscape-font-specification:'Arial Heavy';font-variant-ligatures:normal;font-variant-position:normal;font-variant-caps:normal;font-variant-numeric:normal;font-variant-alternates:normal;font-feature-settings:normal;text-indent:0;text-align:center;text-decoration:none;text-decoration-line:none;text-decoration-style:solid;text-decoration-color:#000000;letter-spacing:normal;word-spacing:normal;text-transform:none;writing-mode:lr-tb;direction:ltr;text-orientation:mixed;dominant-baseline:auto;baseline-shift:baseline;text-anchor:middle;white-space:normal;shape-padding:0;opacity:1;vector-effect:none;fill:#000000;fill-opacity:1;fill-rule:nonzero;stroke:none;stroke-width:0.13189633;stroke-linecap:round;stroke-linejoin:round;stroke-miterlimit:4;stroke-dasharray:none;stroke-dashoffset:0;stroke-opacity:1;paint-order:normal"
       x="427.37653"
       y="-53.446442"
       id="text3343"><tspan
         sodipodi:role="line"
         id="tspan3341"
         x="427.37653"
         y="-53.446442"
         style="font-style:normal;font-variant:normal;font-weight:normal;font-stretch:normal;font-family:Arial;-inkscape-font-specification:Arial;fill:#000000;stroke:none;stroke-width:0.13189633">Insight</tspan></text>
    <text
       id="text3347"
       y="-55.330673"
       x="691.92285"
       style="font-style:normal;font-variant:normal;font-weight:900;font-stretch:normal;font-size:28.48960686px;line-height:1.25;font-family:Arial;-inkscape-font-specification:'Arial Heavy';font-variant-ligatures:normal;font-variant-position:normal;font-variant-caps:normal;font-variant-numeric:normal;font-variant-alternates:normal;font-feature-settings:normal;text-indent:0;text-align:center;text-decoration:none;text-decoration-line:none;text-decoration-style:solid;text-decoration-color:#000000;letter-spacing:normal;word-spacing:normal;text-transform:none;writing-mode:lr-tb;direction:ltr;text-orientation:mixed;dominant-baseline:auto;baseline-shift:baseline;text-anchor:middle;white-space:normal;shape-padding:0;opacity:1;vector-effect:none;fill:#000000;fill-opacity:1;fill-rule:nonzero;stroke:none;stroke-width:0.13189633;stroke-linecap:round;stroke-linejoin:round;stroke-miterlimit:4;stroke-dasharray:none;stroke-dashoffset:0;stroke-opacity:1;paint-order:normal"
       xml:space="preserve"><tspan
         style="font-style:normal;font-variant:normal;font-weight:normal;font-stretch:normal;font-family:Arial;-inkscape-font-specification:Arial;fill:#000000;stroke:none;stroke-width:0.13189633"
         y="-55.330673"
         x="691.92285"
         id="tspan3345"
         sodipodi:role="line">Health Check</tspan></text>
    <path
       sodipodi:type="star"
       style="opacity:1;vector-effect:none;fill:#000000;fill-opacity:1;fill-rule:nonzero;stroke:none;stroke-width:0.26458332;stroke-linecap:round;stroke-linejoin:round;stroke-miterlimit:4;stroke-dasharray:none;stroke-dashoffset:0;stroke-opacity:1;paint-order:normal"
       id="path3349"
       sodipodi:sides="6"
       sodipodi:cx="-166.30952"
       sodipodi:cy="-22.011911"
       sodipodi:r1="111.125"
       sodipodi:r2="96.237076"
       sodipodi:arg1="1.5707963"
       sodipodi:arg2="2.0943951"
       inkscape:flatsided="true"
       inkscape:rounded="0"
       inkscape:randomized="0"
       d="m -166.30952,89.113089 -96.23708,-55.562498 0,-111.125 96.23707,-55.562501 96.237077,55.562496 3e-6,111.125 z"
       inkscape:transform-center-x="-3.3368041e-006"
       transform="matrix(0.1137005,0,0,0.11394419,264.1675,-141.98447)"
       inkscape:transform-center-y="2.2786894e-006" />
    <path
       transform="matrix(0.68727888,0,0,0.68875196,268.1652,57.772517)"
       inkscape:transform-center-x="-1.5831348e-005"
       d="m -166.30952,89.113089 -96.23708,-55.562498 0,-111.125 96.23707,-55.562501 96.237077,55.562496 3e-6,111.125 z"
       inkscape:randomized="0"
       inkscape:rounded="0"
       inkscape:flatsided="true"
       sodipodi:arg2="2.0943951"
       sodipodi:arg1="1.5707963"
       sodipodi:r2="96.237076"
       sodipodi:r1="111.125"
       sodipodi:cy="-22.011911"
       sodipodi:cx="-166.30952"
       sodipodi:sides="6"
       id="path3351"
       style="opacity:1;vector-effect:none;fill:#e9ddaf;fill-opacity:1;fill-rule:nonzero;stroke:none;stroke-width:0.26458332;stroke-linecap:round;stroke-linejoin:round;stroke-miterlimit:4;stroke-dasharray:none;stroke-dashoffset:0;stroke-opacity:1;paint-order:normal"
       sodipodi:type="star" />
    <path
       sodipodi:type="star"
       style="opacity:1;vector-effect:none;fill:#e9ddaf;fill-opacity:1;fill-rule:nonzero;stroke:none;stroke-width:0.26458332;stroke-linecap:round;stroke-linejoin:round;stroke-miterlimit:4;stroke-dasharray:none;stroke-dashoffset:0;stroke-opacity:1;paint-order:normal"
       id="path3355"
       sodipodi:sides="6"
       sodipodi:cx="-166.30952"
       sodipodi:cy="-22.011911"
       sodipodi:r1="111.125"
       sodipodi:r2="96.237076"
       sodipodi:arg1="1.5707963"
       sodipodi:arg2="2.0943951"
       inkscape:flatsided="true"
       inkscape:rounded="0"
       inkscape:randomized="0"
       d="m -166.30952,89.113089 -96.23708,-55.562498 0,-111.125 96.23707,-55.562501 96.237077,55.562496 3e-6,111.125 z"
       inkscape:transform-center-x="-1.4057198e-005"
       transform="matrix(0.68727888,0,0,0.68875196,539.87165,57.772517)" />
    <path
       transform="matrix(0.68727888,0,0,0.68875196,808.56331,57.772517)"
       inkscape:transform-center-x="-1.1084557e-005"
       d="m -166.30952,89.113089 -96.23708,-55.562498 0,-111.125 96.23707,-55.562501 96.237077,55.562496 3e-6,111.125 z"
       inkscape:randomized="0"
       inkscape:rounded="0"
       inkscape:flatsided="true"
       sodipodi:arg2="2.0943951"
       sodipodi:arg1="1.5707963"
       sodipodi:r2="96.237076"
       sodipodi:r1="111.125"
       sodipodi:cy="-22.011911"
       sodipodi:cx="-166.30952"
       sodipodi:sides="6"
       id="path3357"
       style="opacity:1;vector-effect:none;fill:#005500;fill-opacity:1;fill-rule:nonzero;stroke:none;stroke-width:0.26458332;stroke-linecap:round;stroke-linejoin:round;stroke-miterlimit:4;stroke-dasharray:none;stroke-dashoffset:0;stroke-opacity:1;paint-order:normal"
       sodipodi:type="star" />
    <path
       style="opacity:1;vector-effect:none;fill:none;fill-opacity:1;fill-rule:nonzero;stroke:#000000;stroke-width:1.54118431;stroke-linecap:round;stroke-linejoin:round;stroke-miterlimit:4;stroke-dasharray:none;stroke-dashoffset:0;stroke-opacity:1;paint-order:normal"
       d="m 435.85495,13.400101 c -1.1835,-2.113211 -2.80087,-4.0292864 -4.83445,-5.6079534 -8.13423,-6.314743 -19.84745,-4.839759 -26.1622,3.2944694 -5.99094,7.733891 -4.98593,18.782871 2.30209,25.308918 l -7.71894,9.943116 -0.5977,-0.464001 c -0.57207,-0.444104 -1.39015,-0.341213 -1.83425,0.230851 l -4.02926,5.190273 -4.02925,5.190273 -2.01463,2.595135 m -4.02926,5.190273 -2.01463,2.595134 c -0.4441,0.572072 -0.34107,1.390263 0.231,1.834368 l 3.26077,2.531366 c 0.57208,0.444105 1.39027,0.341073 1.83437,-0.231003 l 16.11702,-20.761086 c 0.44411,-0.572067 0.34096,-1.390112 -0.23111,-1.834218 l -0.5977,-0.463998 7.70717,-9.927961 c 8.13533,5.446579 19.09757,3.673606 25.10125,-4.059743 1.57866,-2.033576 2.67047,-4.290832 3.29308,-6.631497 0.6226,-2.340665 0.77602,-4.764738 0.4779,-7.131948"
       id="path3359"
       inkscape:connector-curvature="0"
       sodipodi:nodetypes="cccccscccccsssssccccsc" />
    <path
       style="opacity:1;vector-effect:none;fill:none;fill-opacity:1;stroke:#000000;stroke-width:1.54118431;stroke-linecap:round;stroke-linejoin:round;stroke-miterlimit:4;stroke-dasharray:none;stroke-dashoffset:0;stroke-opacity:1;paint-order:normal"
       d="m 410.15582,23.668108 5.36663,5.091414 15.27425,-13.347759"
       id="path3382"
       inkscape:connector-curvature="0"
       sodipodi:nodetypes="ccc" />
    <path
       inkscape:connector-curvature="0"
       id="path3404"
       d="M 426.70973,-11.132118 424.30586,0.59575458"
       style="opacity:1;vector-effect:none;fill:none;fill-opacity:1;stroke:#000000;stroke-width:1.54118431;stroke-linecap:round;stroke-linejoin:round;stroke-miterlimit:4;stroke-dasharray:none;stroke-dashoffset:0;stroke-opacity:1;paint-order:normal" />
    <path
       style="opacity:1;vector-effect:none;fill:none;fill-opacity:1;stroke:#000000;stroke-width:1.54118431;stroke-linecap:round;stroke-linejoin:round;stroke-miterlimit:4;stroke-dasharray:none;stroke-dashoffset:0;stroke-opacity:1;paint-order:normal"
       d="m 415.27062,44.67638 -2.40388,11.727871"
       id="path3406"
       inkscape:connector-curvature="0" />
    <path
       style="opacity:1;vector-effect:none;fill:none;fill-opacity:1;stroke:#000000;stroke-width:1.54118431;stroke-linecap:round;stroke-linejoin:round;stroke-miterlimit:4;stroke-dasharray:none;stroke-dashoffset:0;stroke-opacity:1;paint-order:normal"
       d="m 386.02005,15.714577 11.72787,2.403871"
       id="path3408"
       inkscape:connector-curvature="0" />
    <path
       inkscape:connector-curvature="0"
       id="path3410"
       d="m 441.82855,27.153687 11.72787,2.403871"
       style="opacity:1;vector-effect:none;fill:none;fill-opacity:1;stroke:#000000;stroke-width:1.54118431;stroke-linecap:round;stroke-linejoin:round;stroke-miterlimit:4;stroke-dasharray:none;stroke-dashoffset:0;stroke-opacity:1;paint-order:normal" />
    <path
       style="opacity:1;vector-effect:none;fill:none;fill-opacity:1;stroke:#000000;stroke-width:1.54118431;stroke-linecap:round;stroke-linejoin:round;stroke-miterlimit:4;stroke-dasharray:none;stroke-dashoffset:0;stroke-opacity:1;paint-order:normal"
       d="m 408.89833,-10.068783 3.78213,11.3585716"
       id="path3412"
       inkscape:connector-curvature="0" />
    <path
       inkscape:connector-curvature="0"
       id="path3414"
       d="m 426.89602,43.982349 3.78212,11.358572"
       style="opacity:1;vector-effect:none;fill:none;fill-opacity:1;stroke:#000000;stroke-width:1.54118431;stroke-linecap:round;stroke-linejoin:round;stroke-miterlimit:4;stroke-dasharray:none;stroke-dashoffset:0;stroke-opacity:1;paint-order:normal" />
    <path
       inkscape:connector-curvature="0"
       id="path3416"
       d="m 387.08338,33.525974 11.35857,-3.782122"
       style="opacity:1;vector-effect:none;fill:none;fill-opacity:1;stroke:#000000;stroke-width:1.54118431;stroke-linecap:round;stroke-linejoin:round;stroke-miterlimit:4;stroke-dasharray:none;stroke-dashoffset:0;stroke-opacity:1;paint-order:normal" />
    <path
       style="opacity:1;vector-effect:none;fill:none;fill-opacity:1;stroke:#000000;stroke-width:1.54118431;stroke-linecap:round;stroke-linejoin:round;stroke-miterlimit:4;stroke-dasharray:none;stroke-dashoffset:0;stroke-opacity:1;paint-order:normal"
       d="m 441.13452,15.528285 11.35857,-3.782123"
       id="path3418"
       inkscape:connector-curvature="0" />
    <path
       inkscape:connector-curvature="0"
       id="path3420"
       d="m 394.00487,-0.24221042 8.95471,7.94575002"
       style="opacity:1;vector-effect:none;fill:none;fill-opacity:1;stroke:#000000;stroke-width:1.54118431;stroke-linecap:round;stroke-linejoin:round;stroke-miterlimit:4;stroke-dasharray:none;stroke-dashoffset:0;stroke-opacity:1;paint-order:normal" />
    <path
       style="opacity:1;vector-effect:none;fill:none;fill-opacity:1;stroke:#000000;stroke-width:1.54118431;stroke-linecap:round;stroke-linejoin:round;stroke-miterlimit:4;stroke-dasharray:none;stroke-dashoffset:0;stroke-opacity:1;paint-order:normal"
       d="m 436.6169,37.568598 8.9547,7.94575"
       id="path3422"
       inkscape:connector-curvature="0" />
    <path
       inkscape:connector-curvature="0"
       id="path3426"
       d="m 434.72077,5.8074076 7.94574,-8.954702"
       style="opacity:1;vector-effect:none;fill:none;fill-opacity:1;stroke:#000000;stroke-width:1.54118431;stroke-linecap:round;stroke-linejoin:round;stroke-miterlimit:4;stroke-dasharray:none;stroke-dashoffset:0;stroke-opacity:1;paint-order:normal" />
    <text
       xml:space="preserve"
       style="font-style:normal;font-variant:normal;font-weight:normal;font-stretch:normal;font-size:14.97868252px;line-height:1.25;font-family:'Arial Rounded MT Bold';-inkscape-font-specification:'Arial Rounded MT Bold, ';font-variant-ligatures:normal;font-variant-position:normal;font-variant-caps:normal;font-variant-numeric:normal;font-variant-alternates:normal;font-feature-settings:normal;text-indent:0;text-align:center;text-decoration:none;text-decoration-line:none;text-decoration-style:solid;text-decoration-color:#000000;letter-spacing:normal;word-spacing:normal;text-transform:none;writing-mode:lr-tb;direction:ltr;text-orientation:mixed;dominant-baseline:auto;baseline-shift:baseline;text-anchor:middle;white-space:normal;shape-padding:0;opacity:1;vector-effect:none;fill:#000000;fill-opacity:1;fill-rule:nonzero;stroke:none;stroke-width:1.109532;stroke-linecap:round;stroke-linejoin:round;stroke-miterlimit:4;stroke-dasharray:none;stroke-dashoffset:0;stroke-opacity:1;paint-order:normal"
       x="441.30481"
       y="73.80262"
       id="text3430"><tspan
         sodipodi:role="line"
         id="tspan3428"
         x="441.30481"
         y="73.80262"
         style="font-style:normal;font-variant:normal;font-weight:normal;font-stretch:normal;font-family:'Arial Rounded MT Bold';-inkscape-font-specification:'Arial Rounded MT Bold, ';fill:#000000;stroke-width:1.109532">COVRPAGE</tspan></text>
    <text
       id="text3434"
       y="9.7675648"
       x="164.31583"
       style="font-style:normal;font-variant:normal;font-weight:normal;font-stretch:normal;font-size:10.26959038px;line-height:1.25;font-family:'Arial Rounded MT Bold';-inkscape-font-specification:'Arial Rounded MT Bold, ';font-variant-ligatures:normal;font-variant-position:normal;font-variant-caps:normal;font-variant-numeric:normal;font-variant-alternates:normal;font-feature-settings:normal;text-indent:0;text-align:center;text-decoration:none;text-decoration-line:none;text-decoration-style:solid;text-decoration-color:#000000;letter-spacing:normal;word-spacing:normal;text-transform:none;writing-mode:lr-tb;direction:ltr;text-orientation:mixed;dominant-baseline:auto;baseline-shift:baseline;text-anchor:middle;white-space:normal;shape-padding:0;opacity:1;vector-effect:none;fill:#000000;fill-opacity:1;fill-rule:nonzero;stroke:none;stroke-width:0.76071036;stroke-linecap:round;stroke-linejoin:round;stroke-miterlimit:4;stroke-dasharray:none;stroke-dashoffset:0;stroke-opacity:1;paint-order:normal"
       xml:space="preserve"><tspan
         style="font-style:normal;font-variant:normal;font-weight:normal;font-stretch:normal;font-family:'Arial Rounded MT Bold';-inkscape-font-specification:'Arial Rounded MT Bold, ';fill:#000000;stroke-width:0.76071036"
         y="9.7675648"
         x="164.31583"
         id="tspan3432"
         sodipodi:role="line">COVRPAGE</tspan></text>
    <path
       style="stroke-width:1.14496946"
       d="M 124.72729,-8.8700884 V 87.364517 h 65.83559 V 16.845839 l -4.94122,-5.02624 h -5.56824 l 3.30771,3.354599 h -16.92265 l -0.002,-3.354599 h -3.62277 c -0.13234,0 -0.26001,-0.01836 -0.3823,-0.04971 v 7.491817 h 24.12441 V 83.38006 l -57.82115,-0.02292 V -4.8627074 h 33.69642 v 4.34124398 c 0.1223,-0.03136 0.24995,-0.04972 0.3823,-0.04972 h 3.61452 l -0.001,-1.42922098 1.40913,1.42922098 h 5.60456 l -8.15851,-8.29890698 z"
       id="path3438"
       inkscape:connector-curvature="0" />
    <path
       id="path3440"
       d="m 141.55823,62.175235 a 8.3697275,8.3697275 0 1 0 8.35828,8.369726 h -8.35828 z"
       inkscape:connector-curvature="0"
       style="stroke-width:1.14496958" />
    <path
       id="path3442"
       d="m 145.40533,58.316687 v 8.381177 h 8.36972 a 8.3697275,8.3697275 0 0 0 -8.36972,-8.381177 z"
       inkscape:connector-curvature="0"
       style="stroke-width:1.14496958" />
    <rect
       id="rect3444"
       height="4.0073934"
       width="41.413544"
       y="48.676041"
       x="136.944"
       style="stroke-width:1.14496958" />
    <rect
       id="rect3446"
       height="4.0073934"
       width="41.413544"
       y="37.226345"
       x="136.944"
       style="stroke-width:1.14496958" />
    <rect
       id="rect3448"
       height="4.0073934"
       width="41.413544"
       y="25.776651"
       x="136.944"
       style="stroke-width:1.14496958" />
    <rect
       id="rect3450"
       height="4.0073934"
       width="21.376581"
       y="73.098236"
       x="156.98097"
       style="stroke-width:1.14496958" />
    <rect
       id="rect3452"
       height="4.0073934"
       width="21.376581"
       y="61.648548"
       x="156.98097"
       style="stroke-width:1.14496958" />
    <g
       id="g3517"
       transform="matrix(1.2459025,0,0,1.2459025,645.29253,-18.860479)">
      <path
         id="path3500"
         d="M 31.77,53.62 A 3.33,3.33 0 0 0 31.3,51.93 l 1.22,-1.22 a 11.42,11.42 0 1 0 -1.4,-1.42 l -1.27,1.27 a 3.45,3.45 0 0 0 -3.91,0.58 L 14.37,62.7 a 3.36,3.36 0 0 0 0,4.75 l 0.11,0.11 a 3.36,3.36 0 0 0 4.74,0 L 30.79,56 a 3.33,3.33 0 0 0 0.98,-2.38 z M 40,32.5 A 9.5,9.5 0 1 1 30.5,42 9.51,9.51 0 0 1 40,32.5 Z M 29.37,54.58 17.81,66.14 a 1.39,1.39 0 0 1 -1.92,0 L 15.79,66 a 1.36,1.36 0 0 1 0,-1.92 L 27.35,52.55 a 1.36,1.36 0 0 1 1.92,0 l 0.11,0.11 a 1.36,1.36 0 0 1 0,1.92 z"
         inkscape:connector-curvature="0" />
      <path
         id="path3502"
         d="M 57.33,14.39 A 18.06,18.06 0 0 0 40,20.21 17.92,17.92 0 0 0 8.67,29.48 C 7.39,39 13.24,45.69 19.88,52.25 L 22,50.11 C 15.92,44.11 10.55,38.04 11.66,29.87 a 15,15 0 0 1 11.62,-12.54 14.84,14.84 0 0 1 15.49,6.19 l 1.23,1.8 1.24,-1.8 a 14.85,14.85 0 0 1 15.49,-6.19 15,15 0 0 1 11.62,12.55 c 1.21,8.93 -5.39,15.4 -11.77,21.64 L 55.09,53 C 49.9,58.11 42.63,64.65 40,67 38.46,65.63 35.32,62.81 32,59.7 l -2,2.2 c 4.74,4.39 9,8.2 9.08,8.23 L 40,71 41,70.12 c 0.1,-0.09 9.74,-8.62 16.21,-15 l 1.47,-1.45 C 65.27,47.22 72.74,39.91 71.33,29.48 a 18,18 0 0 0 -14,-15.09 z"
         inkscape:connector-curvature="0" />
      <path
         id="path3504"
         d="m 45,42 h 2 a 7,7 0 0 0 -7,-7 v 2 a 5,5 0 0 1 5,5 z"
         inkscape:connector-curvature="0" />
    </g>
    <text
       id="text3521"
       y="86.238556"
       x="696.42999"
       style="font-style:normal;font-variant:normal;font-weight:normal;font-stretch:normal;font-size:14.97868252px;line-height:1.25;font-family:'Arial Rounded MT Bold';-inkscape-font-specification:'Arial Rounded MT Bold, ';font-variant-ligatures:normal;font-variant-position:normal;font-variant-caps:normal;font-variant-numeric:normal;font-variant-alternates:normal;font-feature-settings:normal;text-indent:0;text-align:center;text-decoration:none;text-decoration-line:none;text-decoration-style:solid;text-decoration-color:#000000;letter-spacing:normal;word-spacing:normal;text-transform:none;writing-mode:lr-tb;direction:ltr;text-orientation:mixed;dominant-baseline:auto;baseline-shift:baseline;text-anchor:middle;white-space:normal;shape-padding:0;opacity:1;vector-effect:none;fill:#000000;fill-opacity:1;fill-rule:nonzero;stroke:none;stroke-width:1.109532;stroke-linecap:round;stroke-linejoin:round;stroke-miterlimit:4;stroke-dasharray:none;stroke-dashoffset:0;stroke-opacity:1;paint-order:normal"
       xml:space="preserve"><tspan
         style="font-style:normal;font-variant:normal;font-weight:normal;font-stretch:normal;font-family:'Arial Rounded MT Bold';-inkscape-font-specification:'Arial Rounded MT Bold, ';fill:#000000;stroke-width:1.109532"
         y="86.238556"
         x="696.42999"
         id="tspan3519"
         sodipodi:role="line">COVRPAGE</tspan></text>
    <text
       id="text4349"
       y="225.9301"
       x="415.95221"
       style="font-style:normal;font-variant:normal;font-weight:normal;font-stretch:normal;font-size:14.97868252px;line-height:1.25;font-family:'Arial Rounded MT Bold';-inkscape-font-specification:'Arial Rounded MT Bold, ';font-variant-ligatures:normal;font-variant-position:normal;font-variant-caps:normal;font-variant-numeric:normal;font-variant-alternates:normal;font-feature-settings:normal;text-indent:0;text-align:center;text-decoration:none;text-decoration-line:none;text-decoration-style:solid;text-decoration-color:#000000;letter-spacing:normal;word-spacing:normal;text-transform:none;writing-mode:lr-tb;direction:ltr;text-orientation:mixed;dominant-baseline:auto;baseline-shift:baseline;text-anchor:middle;white-space:normal;shape-padding:0;opacity:1;vector-effect:none;fill:#ffffff;fill-opacity:1;fill-rule:nonzero;stroke:none;stroke-width:1.109532;stroke-linecap:round;stroke-linejoin:round;stroke-miterlimit:4;stroke-dasharray:none;stroke-dashoffset:0;stroke-opacity:1;paint-order:normal"
       xml:space="preserve"><tspan
         style="font-style:normal;font-variant:normal;font-weight:normal;font-stretch:normal;font-family:'Arial Rounded MT Bold';-inkscape-font-specification:'Arial Rounded MT Bold, ';fill:#ffffff;stroke-width:1.109532"
         y="225.9301"
         x="415.95221"
         id="tspan4347"
         sodipodi:role="line">PAGE</tspan></text>
    <path
       id="path4330"
       d="m 359.85032,328.10756 a 11.313661,11.313661 0 0 0 -1.59682,-5.74176 l 4.14495,-4.14494 a 38.799404,38.799404 0 1 0 -4.75649,-4.82447 l -4.31483,4.31484 a 11.721361,11.721361 0 0 0 -13.28421,1.97053 l -39.30902,39.27507 a 11.415586,11.415586 0 0 0 0,16.13809 l 0.37372,0.37373 a 11.415586,11.415586 0 0 0 16.10414,0 l 39.30902,-39.27504 a 11.313661,11.313661 0 0 0 3.32954,-8.08605 z m 27.96139,-71.75512 a 32.276211,32.276211 0 1 1 -32.27619,32.27621 32.310186,32.310186 0 0 1 32.27619,-32.27621 z m -36.11537,75.01672 -39.27507,39.27504 a 4.7225193,4.7225193 0 0 1 -6.52318,0 l -0.33975,-0.47565 a 4.6205943,4.6205943 0 0 1 0,-6.52319 l 39.27505,-39.1731 a 4.6205943,4.6205943 0 0 1 6.52321,0 l 0.37372,0.37372 a 4.6205943,4.6205943 0 0 1 0,6.52318 z"
       inkscape:connector-curvature="0"
       style="fill:#ffffff;stroke-width:3.39749599"
       clip-path="url(#clipPath4439)"
       transform="translate(-23.252449,-77.508163)" />
    <text
       xml:space="preserve"
       style="font-style:normal;font-variant:normal;font-weight:normal;font-stretch:normal;font-size:34.46623611px;line-height:1.25;font-family:'Arial Rounded MT Bold';-inkscape-font-specification:'Arial Rounded MT Bold, ';font-variant-ligatures:normal;font-variant-position:normal;font-variant-caps:normal;font-variant-numeric:normal;font-variant-alternates:normal;font-feature-settings:normal;text-indent:0;text-align:center;text-decoration:none;text-decoration-line:none;text-decoration-style:solid;text-decoration-color:#000000;letter-spacing:normal;word-spacing:normal;text-transform:none;writing-mode:lr-tb;direction:ltr;text-orientation:mixed;dominant-baseline:auto;baseline-shift:baseline;text-anchor:middle;white-space:normal;shape-padding:0;opacity:1;vector-effect:none;fill:#ffffff;fill-opacity:1;fill-rule:nonzero;stroke:none;stroke-width:2.55305433;stroke-linecap:round;stroke-linejoin:round;stroke-miterlimit:4;stroke-dasharray:none;stroke-dashoffset:0;stroke-opacity:1;paint-order:normal"
       x="249.64352"
       y="184.23335"
       id="text4340"
       transform="scale(0.82550581,1.2113785)"><tspan
         sodipodi:role="line"
         id="tspan4338"
         x="249.64352"
         y="184.23335"
         style="font-style:normal;font-variant:normal;font-weight:normal;font-stretch:normal;font-family:Arial;-inkscape-font-specification:Arial;fill:#ffffff;stroke-width:2.55305433">covr</tspan></text>
    <path
       style="font-style:normal;font-variant:normal;font-weight:normal;font-stretch:normal;font-size:medium;line-height:1.25;font-family:'Arial Rounded MT Bold';-inkscape-font-specification:'Arial Rounded MT Bold, ';font-variant-ligatures:normal;font-variant-position:normal;font-variant-caps:normal;font-variant-numeric:normal;font-variant-alternates:normal;font-feature-settings:normal;text-indent:0;text-align:center;text-decoration:none;text-decoration-line:none;text-decoration-style:solid;text-decoration-color:#000000;letter-spacing:normal;word-spacing:normal;text-transform:none;writing-mode:lr-tb;direction:ltr;text-orientation:mixed;dominant-baseline:auto;baseline-shift:baseline;text-anchor:middle;white-space:normal;shape-padding:0;fill:#216778;fill-opacity:1;fill-rule:nonzero;stroke:none;stroke-width:1.109532;stroke-linecap:round;stroke-linejoin:round;stroke-miterlimit:4;stroke-dasharray:none;stroke-dashoffset:0;stroke-opacity:1;paint-order:normal"
       d="m 398.00401,215.20829 c -0.47784,0 -0.82654,0.10218 -1.04593,0.30697 -0.21942,0.20478 -0.32919,0.54586 -0.32919,1.0237 v 8.2646 c 0,0.42907 0.10033,0.75602 0.30025,0.98031 0.19992,0.21942 0.46294,0.32919 0.78962,0.32919 0.31205,0 0.57036,-0.11213 0.77515,-0.33642 0.20476,-0.22428 0.30747,-0.55358 0.30747,-0.98755 v -3.03496 h 1.98953 c 0.29671,0 0.5742,-0.0166 0.8382,-0.0444 a 38.799404,38.799404 0 0 0 0.47025,-2.04484 c -0.15296,0.12309 -0.33578,0.22181 -0.55552,0.28991 -0.34131,0.10726 -0.76753,0.16071 -1.2795,0.16071 h -1.46296 v -3.27629 h 1.46296 c 0.97028,0 1.61134,0.15849 1.92339,0.47541 0.1434,0.15348 0.24892,0.33052 0.31832,0.53073 a 38.799404,38.799404 0 0 0 0.30491,-2.40708 c -0.04,-0.0128 -0.0778,-0.0284 -0.11888,-0.0398 -0.44368,-0.12679 -1.07715,-0.19018 -1.90117,-0.19018 z"
       id="path4355"
       inkscape:connector-curvature="0" />
    <g
       aria-label="covr"
       transform="matrix(0.82550581,0,0,1.2113785,-23.252449,-77.508163)"
       style="font-style:normal;font-variant:normal;font-weight:normal;font-stretch:normal;font-size:34.46623611px;line-height:1.25;font-family:'Arial Rounded MT Bold';-inkscape-font-specification:'Arial Rounded MT Bold, ';font-variant-ligatures:normal;font-variant-position:normal;font-variant-caps:normal;font-variant-numeric:normal;font-variant-alternates:normal;font-feature-settings:normal;text-indent:0;text-align:center;text-decoration:none;text-decoration-line:none;text-decoration-style:solid;text-decoration-color:#000000;letter-spacing:normal;word-spacing:normal;text-transform:none;writing-mode:lr-tb;direction:ltr;text-orientation:mixed;dominant-baseline:auto;baseline-shift:baseline;text-anchor:middle;white-space:normal;shape-padding:0;opacity:1;vector-effect:none;fill:#ffffff;fill-opacity:1;fill-rule:nonzero;stroke:none;stroke-width:2.55305433;stroke-linecap:round;stroke-linejoin:round;stroke-miterlimit:4;stroke-dasharray:none;stroke-dashoffset:0;stroke-opacity:1;paint-order:normal"
       id="text4392"
       inkscape:path-effect="#path-effect4425">
      <path
         d="m 451.58565,242.95254 c 1.00523,0.0751 1.99156,0.15 2.98878,0.22912 -0.311,2.15318 -1.15816,3.8943 -2.60018,5.21707 -1.43701,1.31661 -3.17874,1.97785 -5.1393,1.98374 -2.44415,0.007 -4.24923,-0.86493 -5.72519,-2.4262 -1.44544,-1.55221 -2.47634,-3.8583 -2.46735,-6.81748 0.006,-1.94375 0.45948,-3.61415 1.16121,-5.1229 0.68463,-1.47197 1.64967,-2.74856 2.81668,-3.76902 1.1974,-1.0532 2.50026,-1.9063 4.01752,-2.3254 1.94076,-0.53607 3.60203,-0.29197 5.00161,0.88609 1.37723,1.14423 2.24502,2.99064 2.61815,5.19446 -0.97745,0.30528 -1.95572,0.60182 -2.94087,0.88814 -0.28698,-1.37755 -0.80693,-2.44087 -1.5587,-3.09453 -0.74364,-0.65824 -1.61537,-0.87956 -2.62662,-0.70026 -1.51465,0.26856 -2.71659,1.14075 -3.67482,2.42431 -0.94688,1.25641 -1.55699,3.12067 -1.56425,5.47706 -0.007,2.38913 0.5846,4.12499 1.52545,5.16799 0.95344,1.05699 2.14212,1.59139 3.63033,1.551 1.19665,-0.0325 2.20875,-0.44277 3.02296,-1.23223 0.81541,-0.79064 1.31484,-1.96242 1.51459,-3.53096 z"
         style="font-style:normal;font-variant:normal;font-weight:normal;font-stretch:normal;font-family:Arial;-inkscape-font-specification:Arial;fill:#ffffff;stroke-width:2.55305433"
         id="path4416"
         inkscape:original-d="m 451.69118,243.69053 2.97877,0.38707 q -0.48805,3.07974 -2.50755,4.82998 -2.00268,1.73341 -4.93096,1.73341 -3.66877,0 -5.90706,-2.38975 -2.22145,-2.40657 -2.22145,-6.88315 0,-2.89462 0.95926,-5.06559 0.95927,-2.17097 2.91146,-3.24804 1.96901,-1.0939 4.27462,-1.0939 2.91145,0 4.76266,1.48097 1.85122,1.46414 2.37292,4.17365 l -2.94511,0.45439 q -0.42073,-1.80073 -1.4978,-2.70951 -1.06024,-0.90877 -2.57487,-0.90877 -2.28877,0 -3.71926,1.64926 -1.43048,1.63243 -1.43048,5.1834 0,3.60145 1.38,5.23388 1.37999,1.63244 3.60145,1.63244 1.7839,0 2.97877,-1.0939 1.19487,-1.0939 1.51463,-3.36584 z"
         inkscape:connector-curvature="0" />
      <path
         d="m 456.02064,240.1207 c -0.0109,-3.49524 0.90603,-7.13429 2.53334,-9.94856 1.40876,-2.42373 3.12696,-4.17203 5.4159,-4.53005 2.56379,-0.40101 4.61145,1.1398 6.22282,3.9705 1.56487,2.7298 2.30057,6.17299 2.29212,9.4771 -0.007,2.70062 -0.34607,4.66977 -1.03016,6.17523 -0.67026,1.4864 -1.6715,2.73211 -3.00554,3.65304 -1.33538,0.92951 -2.78227,1.41565 -4.34957,1.41826 -2.52116,0.004 -4.38655,-1.05831 -5.8416,-2.84269 -1.42295,-1.75874 -2.2272,-4.14341 -2.23731,-7.37283 z m 3.09284,-0.22485 c 0.008,2.53283 0.51484,4.32321 1.47741,5.54209 0.96805,1.21325 2.17171,1.85515 3.66704,1.82982 1.4843,-0.0251 2.72403,-0.71877 3.71464,-2.03194 0.9868,-1.30812 1.47264,-3.2147 1.47456,-5.94299 0.002,-2.59203 -0.487,-4.9592 -1.49753,-6.64156 -1.01479,-1.7259 -2.25173,-2.61668 -3.75478,-2.4469 -1.52145,0.17185 -2.70459,1.31406 -3.66031,3.08167 -0.94015,1.73883 -1.42884,4.07193 -1.42103,6.60981 z"
         style="font-style:normal;font-variant:normal;font-weight:normal;font-stretch:normal;font-family:Arial;-inkscape-font-specification:Arial;fill:#ffffff;stroke-width:2.55305433"
         id="path4418"
         inkscape:original-d="m 456.13409,241.30078 q 0,-4.96462 2.75999,-7.35437 2.30561,-1.98585 5.62096,-1.98585 3.6856,0 6.02486,2.42341 2.33926,2.40658 2.33926,6.66437 0,3.44999 -1.04341,5.43584 -1.02658,1.96901 -3.01243,3.06291 -1.96902,1.0939 -4.30828,1.0939 -3.75291,0 -6.07534,-2.40658 -2.30561,-2.40657 -2.30561,-6.93363 z m 3.11341,0 q 0,3.43316 1.4978,5.14974 1.4978,1.69975 3.76974,1.69975 2.25512,0 3.75292,-1.71658 1.4978,-1.71658 1.4978,-5.23389 0,-3.31535 -1.51463,-5.01511 -1.4978,-1.71658 -3.73609,-1.71658 -2.27194,0 -3.76974,1.69976 -1.4978,1.69975 -1.4978,5.13291 z"
         inkscape:connector-curvature="0" />
      <path
         d="m 480.91746,249.81707 c -1.40247,-3.93716 -3.74918,-10.91977 -4.8902,-15.58847 -0.59328,-2.42121 -1.13392,-5.05156 -1.71513,-8.42281 0.63474,0.0215 1.26889,0.0545 1.90351,0.0991 0.45435,0.0318 0.90802,0.07 1.36137,0.1143 0.968,7.2435 2.2035,11.61061 3.43477,15.62393 0.40794,1.32696 0.7558,2.56845 1.1188,3.98959 0.25802,-1.06369 0.61447,-2.21888 1.10301,-3.65649 1.3216,-3.89137 2.36141,-8.12397 4.50484,-14.06142 1.03493,0.26845 2.06032,0.55119 3.08701,0.84337 -1.21478,2.92995 -6.90171,20.1753 -7.09896,21.07408 0.0435,2.6e-4 -2.85256,-0.0155 -2.80902,-0.0152 z"
         style="font-style:normal;font-variant:normal;font-weight:normal;font-stretch:normal;font-family:Arial;-inkscape-font-specification:Arial;fill:#ffffff;stroke-width:2.55305433"
         id="path4420"
         inkscape:original-d="m 481.41158,250.23709 -6.79901,-17.87263 h 3.19756 l 3.83706,10.70338 q 0.62268,1.73341 1.14438,3.60146 0.4039,-1.41366 1.12756,-3.3995 l 3.9717,-10.90534 h 3.1134 l -6.76534,17.87263 z"
         inkscape:connector-curvature="0" />
      <path
         d="m 493.09456,249.90381 c -0.25448,-1.88351 -0.36243,-16.29629 0.33214,-20.39108 0.88686,0.26031 1.78659,0.52565 2.6689,0.78078 -0.22144,1.2102 -0.33284,2.38258 -0.39097,3.48359 0.78022,-1.45037 1.54738,-2.34373 2.21616,-2.70084 0.67258,-0.35032 1.35724,-0.40093 2.04394,-0.20859 0.99344,0.27825 1.89521,0.91238 2.84192,1.73878 -0.45943,0.86166 -0.83702,1.81292 -1.1749,2.74617 -0.75478,-0.52311 -1.48851,-0.86013 -2.22832,-0.96406 -0.66284,-0.0931 -1.26106,0.0421 -1.80168,0.43325 -0.53888,0.37716 -0.92287,0.96207 -1.14746,1.73379 -0.33556,1.17213 -0.48412,2.44263 -0.48103,3.76818 0.006,2.37986 -0.22094,7.03849 0.14661,9.60586 -0.56053,-0.005 -2.46479,-0.0211 -3.02531,-0.0258 z"
         style="font-style:normal;font-variant:normal;font-weight:normal;font-stretch:normal;font-family:Arial;-inkscape-font-specification:Arial;fill:#ffffff;stroke-width:2.55305433"
         id="path4422"
         inkscape:original-d="m 493.64642,250.23709 v -17.87263 h 2.72633 v 2.70951 q 1.04341,-1.9017 1.91853,-2.50756 0.89195,-0.60585 1.95219,-0.60585 1.53146,0 3.1134,0.9761 l -1.04341,2.81048 q -1.11073,-0.65634 -2.22145,-0.65634 -0.99293,0 -1.7839,0.60585 -0.79097,0.58902 -1.12756,1.64926 -0.50487,1.61561 -0.50487,3.53414 v 9.35704 z"
         inkscape:connector-curvature="0" />
    </g>
  </g>
</svg>
